<svg xmlns="http://www.w3.org/2000/svg" viewBox="0 0 512 512" role="img" aria-label="SacredChain logo">
  <defs>
    <linearGradient id="g" x1="0" y1="0" x2="1" y2="1">
      <stop offset="0" stop-color="#00f5a0"/>
      <stop offset="1" stop-color="#00d9f5"/>
    </linearGradient>
    <filter id="soft" x="-20%" y="-20%" width="140%" height="140%">
      <feGaussianBlur stdDeviation="6" result="b"/>
      <feColorMatrix in="b" type="matrix" values="1 0 0 0 0  0 1 0 0 0  0 0 1 0 0  0 0 0 .35 0"/>
      <feMerge>
        <feMergeNode/>
        <feMergeNode in="SourceGraphic"/>
      </feMerge>
    </filter>
  </defs>

  <rect width="512" height="512" rx="120" fill="#0b1020"/>

  <!-- 8-point star (subtle Islamic geometry) -->
  <g filter="url(#soft)" opacity="0.95">
    <path fill="url(#g)" d="M256 92l36 78 84-20-42 76 74 44-84 20 12 86-80-34-80 34 12-86-84-20 74-44-42-76 84 20z"/>
  </g>

  <!-- chain link motif in the center -->
  <g fill="none" stroke="#e8f8ff" stroke-width="18" stroke-linecap="round" stroke-linejoin="round" opacity="0.92">
    <path d="M206 290l-18 18a62 62 0 0 0 88 88l18-18"/>
    <path d="M306 222l18-18a62 62 0 0 0-88-88l-18 18"/>
    <path d="M226 286l60-60"/>
  </g>

  <text x="256" y="470" text-anchor="middle" font-family="ui-sans-serif, system-ui, -apple-system, Segoe UI, Roboto" font-size="34" fill="#cfefff" opacity="0.9">SacredChain</text>
</svg>
